# xmcd
#
# Track frame offsets: 
#        150
#        18675
#        32250
#        49305
#        67380
#        83887
#        98774
#        120674
#        136784
#        156644
#        173886
#        187798
#        202348
#        223115
#        235242
#        252807
#        271414
#
# Disc length: 3818 seconds
#
# Revision: 1
# Processed by: cddbd v1.5.2PL0 Copyright (c) Steve Scherf et al.
# Submitted via: ExactAudioCopy v0.95a5
#
DISCID=fa0ee811
DTITLE=Сергей Беликов - Greatest Hits. 1974-1994
DYEAR=1994
DGENRE=Pop
TTITLE0=Будь за меня спокоен
TTITLE1=У Беды глаза зелёные
TTITLE2=Радуга (1980 Г.)
TTITLE3=Сентиментальная Прогулка (1975 Г.)
TTITLE4=Ночная Гостья (1994 Г.)
TTITLE5=Снится Мне Деревня (1986 Г.)
TTITLE6=Моя Гитара
TTITLE7=Удивлённый Человек (1986 Г.)
TTITLE8=Ноктюрн (1980 Г.)
TTITLE9=Время Уходит (1992 Г.)
TTITLE10=Живи, Родник (1985 Г.)
TTITLE11=Каторга (1992 Г.)
TTITLE12=Ласковые Руки (1992 Г.)
TTITLE13=Не Могу Забыть (1990 Г.)
TTITLE14=Удивительные Кони (1990 Г.)
TTITLE15=Что Ж Ты Меня Не Доглядела (1994 Г.)
TTITLE16=Кончается Шампанское (1992 Г.)
EXTD=
EXTT0=
EXTT1=
EXTT2=
EXTT3=
EXTT4=
EXTT5=
EXTT6=
EXTT7=
EXTT8=
EXTT9=
EXTT10=
EXTT11=
EXTT12=
EXTT13=
EXTT14=
EXTT15=
EXTT16=
PLAYORDER=
